<svg width="35" height="35" viewBox="0 0 35 35" fill="none" xmlns="http://www.w3.org/2000/svg">
<path fill-rule="evenodd" clip-rule="evenodd" d="M16.0417 26.2487C21.6796 26.2487 26.25 21.6783 26.25 16.0404C26.25 10.4025 21.6796 5.83203 16.0417 5.83203C10.4038 5.83203 5.83333 10.4025 5.83333 16.0404C5.83333 21.6783 10.4038 26.2487 16.0417 26.2487ZM16.0417 9.20703C15.1443 9.20703 14.2557 9.38378 13.4267 9.72719C12.5976 10.0706 11.8443 10.5739 11.2098 11.2085C10.5752 11.843 10.0719 12.5963 9.72848 13.4254C9.38508 14.2544 9.20833 15.143 9.20833 16.0404C9.20833 16.5926 9.65604 17.0404 10.2083 17.0404C10.7606 17.0404 11.2083 16.5926 11.2083 16.0404C11.2083 15.4056 11.3333 14.7771 11.5762 14.1907C11.8191 13.6043 12.1752 13.0715 12.624 12.6227C13.0728 12.1739 13.6056 11.8178 14.192 11.5749C14.7784 11.332 15.4069 11.207 16.0417 11.207C16.5939 11.207 17.0417 10.7593 17.0417 10.207C17.0417 9.65475 16.5939 9.20703 16.0417 9.20703Z" fill="#F0912C"/>
<path d="M29.1667 29.1667L26.25 26.25" stroke="#F0912C" stroke-width="2" stroke-linecap="round"/>
</svg>
